<svg id="svg" xmlns="http://www.w3.org/2000/svg" xmlns:xlink="http://www.w3.org/1999/xlink" width="400" height="400" viewBox="0, 0, 400,400"><g id="svgg"><path id="path0" d="M176.172 15.285 C 56.687 31.512,-15.706 154.600,28.196 266.885 C 67.730 368.000,187.985 413.275,284.959 363.555 C 333.820 338.503,373.424 286.616,381.621 236.914 L 382.169 233.594 375.767 233.594 C 369.003 233.594,361.842 235.087,356.708 237.567 C 355.005 238.390,353.239 239.069,352.783 239.077 C 351.484 239.099,346.981 242.857,341.016 248.896 C 334.805 255.183,333.929 256.328,331.353 261.523 C 330.981 262.275,329.903 264.297,328.960 266.016 C 328.016 267.734,327.049 269.756,326.812 270.508 C 326.574 271.260,326.070 271.875,325.690 271.875 C 325.311 271.875,325.000 272.216,325.000 272.632 C 325.000 273.282,321.307 279.139,316.609 285.938 C 303.638 304.710,277.169 325.139,255.469 333.125 C 252.246 334.311,248.818 335.605,247.852 336.000 C 246.885 336.395,245.303 337.044,244.336 337.441 C 243.369 337.838,241.523 338.391,240.234 338.668 C 219.210 343.193,218.560 343.268,200.391 343.258 C 183.479 343.249,178.428 342.785,167.578 340.246 C 164.570 339.542,160.964 338.773,159.563 338.537 C 158.163 338.301,156.823 337.796,156.587 337.414 C 156.351 337.031,155.329 336.719,154.316 336.719 C 153.303 336.719,152.357 336.455,152.214 336.133 C 152.070 335.811,150.020 334.890,147.656 334.088 C 138.064 330.831,123.432 322.737,112.890 314.856 C 105.970 309.684,91.452 295.676,88.435 291.261 C 87.756 290.267,86.978 289.277,86.706 289.063 C 85.187 287.862,76.386 275.015,75.607 272.860 C 75.101 271.459,74.405 270.313,74.062 270.313 C 73.718 270.313,73.438 269.785,73.438 269.141 C 73.438 268.496,73.086 267.969,72.656 267.969 C 72.227 267.969,71.875 267.624,71.875 267.203 C 71.875 266.781,70.498 263.529,68.815 259.976 C 67.132 256.423,65.011 251.230,64.101 248.438 C 63.191 245.645,62.147 242.656,61.781 241.797 C 61.415 240.937,60.753 238.828,60.310 237.109 C 59.867 235.391,59.121 232.578,58.653 230.859 C 55.421 218.985,54.616 191.432,57.054 176.172 C 59.463 161.097,59.491 160.958,60.243 160.494 C 60.625 160.257,60.938 159.377,60.938 158.537 C 60.938 157.697,61.254 156.400,61.641 155.653 C 62.028 154.907,62.979 152.188,63.754 149.609 C 64.530 147.031,65.444 144.588,65.785 144.180 C 66.127 143.771,66.406 142.805,66.406 142.031 C 66.406 141.258,66.758 140.625,67.188 140.625 C 67.617 140.625,67.969 139.922,67.969 139.063 C 67.969 138.203,68.320 137.500,68.750 137.500 C 69.180 137.500,69.531 137.096,69.531 136.601 C 69.531 135.369,73.624 127.015,74.385 126.693 C 74.723 126.549,75.000 126.084,75.000 125.658 C 75.000 125.007,78.584 119.361,83.594 112.117 C 93.401 97.939,114.260 79.512,129.297 71.743 C 130.586 71.077,133.574 69.501,135.938 68.242 C 138.301 66.983,141.992 65.305,144.141 64.514 C 146.289 63.723,148.381 62.770,148.789 62.397 C 149.197 62.024,150.319 61.719,151.282 61.719 C 152.245 61.719,153.250 61.367,153.516 60.938 C 153.781 60.508,154.786 60.156,155.749 60.156 C 156.712 60.156,157.834 59.854,158.242 59.485 C 158.650 59.116,161.094 58.378,163.672 57.846 C 166.250 57.313,169.766 56.551,171.484 56.153 C 183.141 53.450,208.431 52.600,220.313 54.511 C 231.324 56.283,239.892 58.208,242.372 59.467 C 243.118 59.846,244.193 60.156,244.759 60.156 C 246.931 60.156,263.503 67.215,269.922 70.874 C 286.926 80.568,307.271 97.727,314.488 108.464 C 315.548 110.039,317.619 112.910,319.093 114.844 C 320.566 116.777,321.795 118.744,321.823 119.215 C 321.852 119.685,322.578 120.707,323.438 121.484 C 324.297 122.262,325.000 123.342,325.000 123.884 C 325.000 124.426,325.273 124.987,325.606 125.130 C 325.939 125.273,327.456 127.852,328.976 130.859 C 333.983 140.768,334.649 141.699,341.847 148.874 C 350.569 157.568,360.709 161.925,374.255 162.799 C 382.591 163.338,382.475 163.541,379.765 153.066 C 356.239 62.153,268.463 2.750,176.172 15.285 M236.667 92.828 C 235.994 93.120,233.848 94.678,231.899 96.289 C 229.950 97.900,228.011 99.219,227.591 99.219 C 227.171 99.219,225.098 100.096,222.984 101.169 C 220.870 102.241,218.873 103.120,218.546 103.122 C 217.981 103.125,215.440 104.209,206.641 108.203 C 204.492 109.178,202.559 109.793,202.344 109.569 C 202.129 109.345,202.393 109.004,202.930 108.812 C 203.467 108.620,203.906 107.810,203.906 107.012 C 203.906 106.214,204.258 105.344,204.688 105.078 C 208.368 102.803,202.884 100.009,197.871 101.605 C 190.495 103.954,183.594 106.664,183.594 107.212 C 183.594 107.542,183.040 107.813,182.363 107.813 C 180.354 107.813,170.321 114.698,169.555 116.602 C 168.390 119.502,168.729 116.263,169.944 112.891 C 172.681 105.294,170.873 101.119,166.316 104.513 C 165.292 105.276,163.443 106.413,162.209 107.040 C 156.460 109.958,138.281 127.765,138.281 130.478 C 138.281 130.902,137.930 131.250,137.500 131.250 C 137.070 131.250,136.676 131.689,136.624 132.227 C 136.572 132.764,132.792 136.701,128.225 140.977 C 110.669 157.415,101.334 166.856,101.152 168.359 C 100.965 169.912,101.515 169.924,186.122 170.240 L 271.280 170.558 288.361 153.052 C 297.755 143.424,305.448 134.999,305.455 134.329 C 305.467 133.270,303.994 133.145,294.141 133.370 C 283.605 133.611,282.813 133.530,282.813 132.205 C 282.813 127.358,279.696 125.391,276.487 128.214 C 270.967 133.068,269.727 133.689,266.048 133.444 L 262.440 133.203 266.792 128.753 C 271.588 123.850,272.004 121.334,268.299 119.646 C 266.168 118.675,265.806 118.787,253.711 124.133 C 247.400 126.923,247.330 126.737,252.344 120.540 C 258.358 113.107,257.954 112.147,249.098 112.816 C 245.164 113.113,241.320 113.690,240.556 114.100 C 239.791 114.509,238.284 114.844,237.207 114.844 C 236.130 114.844,235.056 115.155,234.820 115.536 C 234.585 115.917,233.082 116.475,231.481 116.775 C 229.880 117.076,227.503 117.869,226.199 118.538 C 224.023 119.654,224.135 119.407,227.555 115.541 C 232.950 109.442,233.009 109.359,235.250 104.672 C 236.898 101.225,239.018 92.019,238.113 92.242 C 237.991 92.273,237.340 92.536,236.667 92.828 M100.698 191.211 C 101.112 191.963,109.316 200.400,118.929 209.961 L 136.408 227.344 218.497 227.344 C 263.646 227.344,301.685 227.563,303.027 227.832 C 307.053 228.637,306.047 226.535,299.004 219.421 C 295.448 215.829,287.641 207.705,281.656 201.367 L 270.773 189.844 185.359 189.844 C 104.246 189.844,99.983 189.913,100.698 191.211 M220.313 246.115 C 174.121 246.369,136.199 246.644,136.041 246.726 C 135.883 246.808,129.697 252.939,122.294 260.352 C 114.891 267.764,107.071 275.466,104.917 277.468 C 97.169 284.668,88.794 284.011,185.476 283.787 L 270.703 283.590 278.906 275.116 C 301.252 252.031,304.580 248.446,305.058 246.939 C 305.342 246.044,305.287 245.389,304.935 245.483 C 304.584 245.578,266.504 245.862,220.313 246.115 " stroke="none" fill="#fff" fill-rule="evenodd"></path></g></svg>